<?xml version="1.0" encoding="utf-8"?>
<!-- Generator: Adobe Illustrator 25.1.0, SVG Export Plug-In . SVG Version: 6.00 Build 0)  -->
<svg width="24px" height="24px" viewBox="0 0 24 24" version="1.1" xmlns="http://www.w3.org/2000/svg" xmlns:xlink="http://www.w3.org/1999/xlink">
<title>EnergyIcon</title>
<g>
		<g id="EnergyIcon" fill="#193251">
			<path id="SVGID_2_" d="M2.3,13.4L2.3,13.4c-0.5,0.7,0,1.6,0.8,1.6h7.9l-0.9,6.9c-0.1,1,1.1,1.5,1.8,0.8l10-12l0.1-0.1
				c0.4-0.6,0-1.5-0.8-1.5h-7.9l0.9-6.9c0.1-1-1.1-1.5-1.8-0.8L2.3,13.4L2.3,13.4z M11.7,5.3l-0.6,4.6l0,0.1c0,0.5,0.4,1,1,1h6.9
				l-6.4,7.7l0.6-4.6l0-0.1c0-0.5-0.4-1-1-1H5.2L11.7,5.3L11.7,5.3z"/>
		</g>
</g>
</svg>
