<?xml version="1.0" encoding="utf-8"?>
<!-- Generator: Adobe Illustrator 25.1.0, SVG Export Plug-In . SVG Version: 6.00 Build 0)  -->
<svg version="1.1" id="Ebene_1" xmlns="http://www.w3.org/2000/svg" xmlns:xlink="http://www.w3.org/1999/xlink" x="0px" y="0px"
	 viewBox="0 0 24 24" style="enable-background:new 0 0 24 24;" xml:space="preserve">
<style type="text/css">
	.st0{fill:#7589A2;}
</style>
<g id="Path" transform="translate(0 0)">
	<path class="st0" d="M12,1.1c-0.1,0-0.2,0-0.2,0.1L8.6,7.8L8.4,8.1L8.1,8.2L1,9.2H0.9c-0.1,0-0.2,0.1-0.2,0.2s0,0.2,0.1,0.3L6,14.8
		L6.2,15l-0.1,0.3l-1.2,7.2v0.1c0,0.1,0,0.1,0.1,0.2c0.1,0.1,0.1,0.1,0.2,0.1h0.1l6.4-3.4l0.3-0.2l0.3,0.2l6.4,3.4h0.1h0.1
		c0.1,0,0.1,0,0.2-0.1s0.1-0.1,0.1-0.2L18,15.4L17.8,15l0.2-0.2l5.2-5.1l0,0c0.1-0.1,0-0.2,0-0.3c0-0.1-0.1-0.1-0.2-0.2l-7.2-1.1
		L15.4,8l-0.2-0.3L12,1.1C12.2,1.1,12.1,1.1,12,1.1 M12,0.4c0.3,0,0.7,0.2,0.8,0.5L16,7.5l7.2,1.1c0.7,0.1,1,1,0.6,1.5l-0.1,0.1
		l-5.2,5.1l1.2,7.2c0.1,0.6-0.4,1.1-0.9,1.1c-0.1,0-0.2,0-0.3-0.1h-0.1L12,20.1l-6.4,3.4c-0.1,0.1-0.3,0.1-0.4,0.1
		c-0.5,0-1-0.4-0.9-1v-0.1l1.2-7.2l-5.2-5.1C-0.2,9.6,0,8.8,0.7,8.6h0.1L8,7.5L11.2,1C11.3,0.6,11.7,0.4,12,0.4z"/>
</g>
</svg>
